<svg viewBox="0 0 96.48 132" xmlns="http://www.w3.org/2000/svg"><g transform="translate(-46.08 -23.12)"><path d="m142.56 66.08v89h-96.48v-132h1.92c-1.85 1-2 2-.41 3.47a18.21 18.21 0 0 0 2.47 1.9c7.41 4.74 14.54 9.88 21.66 15 3.76 2.72 7.5 5.46 11.09 8.4 2.7 2.2 3.92 4.87 2.93 8.35-.11.38-.14.79-.23 1.17-1 4.06.63 7.19 3.59 9.79.56.5 1.32 1.24 2.09.63s.08-1.35-.19-2a5.08 5.08 0 0 1 -.4-3.26 7.26 7.26 0 0 1 1.26 2.43 29 29 0 0 0 7.82 10.46 7 7 0 0 0 1.61 1c.52.25 1.13.66 1.67.16s.12-1.09 0-1.57c-.61-1.74-1.32-3.43-1.93-5.16a5.08 5.08 0 0 1 -.32-2.94 7.93 7.93 0 0 1 2.28 2.08 79.86 79.86 0 0 1 10.47 17.12 52.5 52.5 0 0 1 -1.15 46.31 3.67 3.67 0 0 0 -.64 1.79 5.18 5.18 0 0 0 1.87-1.19 64 64 0 0 0 14.64-17.02c6.2-10.9 9.14-22.74 10.06-35.16.2-2.75.32-5.51.62-8.25.42-3.74 2.36-7.03 3.7-10.51zm-76.32 76.48a14.29 14.29 0 0 1 -2 .08 1.69 1.69 0 0 0 -2 1.34 8.45 8.45 0 0 1 -3 4.05c-1.25 1-2.41 2.11-3.59 3.18a1.45 1.45 0 0 0 -.66 1.34c.15.6.73.79 1.3.91a59.12 59.12 0 0 0 7.1 1.09 25.05 25.05 0 0 0 14.83-2.8 37.23 37.23 0 0 1 13.41-4.55c10.76-1.42 17.7-7.52 21-17.62a54.87 54.87 0 0 0 -.18-34.75 29.33 29.33 0 0 0 -2.47-5.74 3.8 3.8 0 0 0 -.09 1.15 57.94 57.94 0 0 1 -.13 12.21 52.76 52.76 0 0 1 -14.78 30.74 20.47 20.47 0 0 1 -10.08 6 2.77 2.77 0 0 1 -3.29-1.19c-.71-1-1.4-2-2.13-3a37.71 37.71 0 0 0 -7.48-7.79 5.82 5.82 0 0 0 -3.42-1.32 34.92 34.92 0 0 0 .87 4.42c.48 3 0 5.66-2.71 7.53-.26.18-.5.4-.77.57-1 .65-1.42 1.4-.57 2.51a9.3 9.3 0 0 1 .84 1.64zm-1.94-78.25c.83-4.82 1.7-9.57 2.47-14.31.29-1.77.13-2-1.61-2.3-4.57-.79-9.13-1.55-13.7-2.31-1.59-.26-1.77-.13-2 1.46q-1.17 6.72-2.32 13.45c-.36 2.13-.18 2.36 2 2.66h.24c4.89.64 9.68 1.91 14.74 2.37l-2.5 13.87c.37.13.59.24.81.29 4.42 1 8.88 1.63 13.32 2.4.83.14 1.1-.34 1.23-1 .18-.86.25-1.73.41-2.6q.87-5 1.76-9.9c.15-.84.2-1.62-.94-1.81zm26.64 18c.11-.57 0-1.06-.67-1.17-2.75-.49-5.5-.95-8.25-1.4a.68.68 0 0 0 -.89.57c-.49 2.83-1 5.65-1.43 8.48-.09.54.17.79.71.88 2.59.45 5.17.93 7.76 1.39.8.14 1.35-.14 1.49-1 .44-2.6.86-5.19 1.28-7.79zm.23 9.27a44.08 44.08 0 0 0 -.82 5.23c1.78.14 3.39.84 5.21.76.21-1.75.65-3.43.72-5.2z" fill="#fdfefe"/><path d="m142.56 66.08c-1.34 3.48-3.28 6.77-3.7 10.55-.3 2.74-.42 5.5-.62 8.25-.92 12.42-3.86 24.26-10.06 35.16a64 64 0 0 1 -14.69 17.1 5.18 5.18 0 0 1 -1.87 1.19 3.67 3.67 0 0 1 .64-1.79 52.5 52.5 0 0 0 1.15-46.31 79.86 79.86 0 0 0 -10.47-17.12 7.93 7.93 0 0 0 -2.28-2.11 5.08 5.08 0 0 0 .34 3c.61 1.73 1.32 3.42 1.93 5.16.17.48.57 1.09 0 1.57s-1.15.09-1.67-.16a7 7 0 0 1 -1.61-1 29 29 0 0 1 -7.82-10.46 7.26 7.26 0 0 0 -1.26-2.43 5.08 5.08 0 0 0 .4 3.26c.27.62.87 1.43.19 2s-1.53-.13-2.09-.63c-3-2.6-4.56-5.73-3.59-9.79.09-.38.12-.79.23-1.17 1-3.48-.23-6.15-2.93-8.35-3.59-2.94-7.33-5.68-11.09-8.4-7.12-5.15-14.25-10.29-21.66-15a18.21 18.21 0 0 1 -2.47-1.9c-1.56-1.6-1.41-2.56.44-3.58h1.44c5.36 2.29 10.27 5.42 15.42 8.11.56.3 1.17.52 1.72.85a3.93 3.93 0 0 0 4.59-.22 22.58 22.58 0 0 1 15-3.74 51.22 51.22 0 0 1 20.41 6.4 54.39 54.39 0 0 1 19.18 17.4 22.49 22.49 0 0 0 8.56 7.27 43.61 43.61 0 0 1 6.27 3.74 6 6 0 0 1 1.93 2.19z" fill="#01dee6"/><path d="m142.56 65.12a6 6 0 0 0 -1.93-2.19 43.61 43.61 0 0 0 -6.27-3.74 22.49 22.49 0 0 1 -8.56-7.27 54.39 54.39 0 0 0 -19.18-17.4 51.22 51.22 0 0 0 -20.41-6.4 22.58 22.58 0 0 0 -15 3.74 3.93 3.93 0 0 1 -4.59.22c-.55-.33-1.16-.55-1.72-.85-5.15-2.69-10.06-5.82-15.42-8.11h93.12z" fill="#fdfefe"/><g fill="#020d2a"><path d="m66.24 142.56a9.3 9.3 0 0 0 -.8-1.64c-.85-1.11-.45-1.86.57-2.51.27-.17.51-.39.77-.57 2.69-1.87 3.19-4.51 2.71-7.53a34.92 34.92 0 0 1 -.87-4.42 5.82 5.82 0 0 1 3.38 1.32 37.71 37.71 0 0 1 7.48 7.79c.73 1 1.42 2 2.13 3a2.77 2.77 0 0 0 3.24 1.14 20.47 20.47 0 0 0 10.08-6 52.76 52.76 0 0 0 14.78-30.74 57.94 57.94 0 0 0 .13-12.21 3.8 3.8 0 0 1 .09-1.15 29.33 29.33 0 0 1 2.47 5.74 54.87 54.87 0 0 1 .18 34.75c-3.31 10.1-10.25 16.2-21 17.62a37.23 37.23 0 0 0 -13.41 4.55 25.05 25.05 0 0 1 -14.83 2.8 59.12 59.12 0 0 1 -7.1-1.09c-.57-.12-1.15-.31-1.3-.91a1.45 1.45 0 0 1 .66-1.34c1.18-1.07 2.34-2.18 3.59-3.18a8.45 8.45 0 0 0 3-4.05 1.69 1.69 0 0 1 2-1.34 14.29 14.29 0 0 0 2.05-.03z"/><path d="m64.3 64.31 13.91 2.31c1.14.19 1.09 1 .94 1.81q-.89 4.95-1.76 9.9c-.16.87-.23 1.74-.41 2.6-.13.62-.4 1.1-1.23 1-4.44-.77-8.9-1.45-13.32-2.4-.22 0-.44-.16-.81-.29l2.38-13.9c-5-.46-9.81-1.73-14.7-2.34h-.24c-2.14-.3-2.32-.53-2-2.66q1.14-6.72 2.32-13.45c.27-1.59.45-1.72 2-1.46 4.57.76 9.13 1.52 13.7 2.31 1.74.29 1.9.53 1.61 2.3-.69 4.7-1.56 9.45-2.39 14.27z"/><path d="m90.94 82.27c-.42 2.6-.84 5.19-1.28 7.79-.14.82-.69 1.1-1.49 1-2.59-.46-5.17-.94-7.76-1.39-.54-.09-.8-.34-.71-.88.47-2.83.94-5.65 1.43-8.48a.68.68 0 0 1 .87-.61c2.75.45 5.5.91 8.25 1.4.67.11.8.6.69 1.17z"/><path d="m91.17 91.54 5.11.79c-.07 1.77-.51 3.45-.72 5.2-1.82.08-3.43-.62-5.21-.76a44.08 44.08 0 0 1 .82-5.23z"/></g></g></svg>